#!OML:ASF I:\Actors\actors\Patient Classification 1\Patient 1\Session 1\Subject1.ASF
:FULLY-SPECIFIED
:DEGREES
887
root 0.763796 17.4518 9.47579 8.39902 3.04046 -8.00718
lowerback -4.04166 2.06527 6.31236
upperback -10.4247 3.00912 1.93145
thorax -8.55611 1.0921 -1.56573
lowerneck -8.94288 -0.330557 -0.00439317
upperneck 24.7305 -2.43838 8.07896
head 9.34888 -0.261197 2.53524
rclavicle 2.33572e-015 7.35503e-015
rhumerus -53.0286 -3.36224 -85.1896
rradius 83.4735
rwrist 39.1852
rhand 13.3965 -27.0494
rfingers 7.12502
rthumb 38.3402 -52.7552
lclavicle 2.33572e-015 7.35503e-015
lhumerus 13.1579 -33.2536 82.3006
lradius 148.544
lwrist 21.647
lhand -25.1965 -7.80801
lfingers 7.12502
lthumb 1.32182 22.1676
rfemur -1.48085 23.5479 25.3472
rtibia 2.70543
rfoot -14.5864 -28.1871
rtoes 5.69243
lfemur 6.98559 -47.1257 -14.7892
ltibia -5.04401
lfoot -20.2996 51.9492
ltoes 8.3959
888
root 0.761581 17.4518 9.47571 8.39019 3.09453 -7.96332
lowerback -4.05547 2.09599 6.30273
upperback -10.4473 3.0472 1.87744
thorax -8.5678 1.10862 -1.6183
lowerneck -9.06097 -0.24026 0.118505
upperneck 24.8206 -2.31317 7.96406
head 9.39519 -0.197655 2.48994
rclavicle -2.6339e-015 -2.0276e-014
rhumerus -53.023 -3.46178 -85.1031
rradius 83.454
rwrist 39.5773
rhand 13.1325 -25.5827
rfingers 7.12502
rthumb 38.091 -51.3571
lclavicle -2.6339e-015 -2.0276e-014
lhumerus 13.2509 -33.2694 82.2152
lradius 148.601
lwrist 21.4729
lhand -25.3466 -7.97222
lfingers 7.12502
lthumb 1.17678 22.0043
rfemur -1.45203 23.5541 25.3225
rtibia 2.69291
rfoot -14.6034 -28.2336
rtoes 5.72299
lfemur 6.90395 -46.9424 -14.7551
ltibia -5.04906
lfoot -19.8261 51.7917
ltoes 7.85557
889
root 0.759178 17.4513 9.47628 8.37804 3.167 -7.95143
lowerback -4.08098 2.1333 6.34238
upperback -10.4723 3.09345 1.81714
thorax -8.57302 1.12512 -1.70447
lowerneck -9.11818 -0.188386 0.23305
upperneck 24.8637 -2.23465 7.84415
head 9.41575 -0.160042 2.43804
rclavicle -1.11319e-014 4.31363e-014
rhumerus -53.0276 -3.5185 -85.1513
rradius 83.4445
rwrist 39.6348
rhand 13.2257 -25.612
rfingers 7.12502
rthumb 38.179 -51.3623
lclavicle -1.11319e-014 4.31363e-014
lhumerus 13.3274 -33.2886 82.156
lradius 148.591
lwrist 21.2337
lhand -25.3846 -8.44999
lfingers 7.12502
lthumb 1.14016 21.5267
rfemur -1.39992 23.575 25.3426
rtibia 2.66692
rfoot -14.639 -28.2973
rtoes 5.89962
lfemur 6.83162 -46.8122 -14.6924
ltibia -5.0453
lfoot -19.5376 51.636
ltoes 7.57405
890
root 0.755088 17.451 9.47687 8.32944 3.25163 -8.04264
lowerback -4.08265 2.1565 6.44952
upperback -10.4941 3.12646 1.80095
thorax -8.59009 1.13142 -1.78173
lowerneck -9.11466 -0.167564 0.276498
upperneck 24.8523 -2.20123 7.80393
head 9.40881 -0.144638 2.41986
rclavicle 2.68359e-015 7.35503e-015
rhumerus -53.0312 -3.51772 -85.2104
rradius 83.4407
rwrist 39.6474
rhand 13.3188 -25.7297
rfingers 7.12502
rthumb 38.2669 -51.4558
lclavicle 2.68359e-015 7.35503e-015
lhumerus 13.3617 -33.3023 82.0986
lradius 148.582
lwrist 20.9953
lhand -25.4973 -8.70396
lfingers 7.12502
lthumb 1.03127 21.2733
rfemur -1.32548 23.5625 25.4959
rtibia 2.63504
rfoot -14.6057 -28.3606
rtoes 5.86914
lfemur 6.79374 -46.6691 -14.5125
ltibia -5.05198
lfoot -19.5839 51.4292
ltoes 7.72517
891
root 0.751532 17.4514 9.47543 8.29868 3.32906 -8.12779
lowerback -4.06112 2.18722 6.54261
upperback -10.5236 3.17203 1.78421
thorax -8.62864 1.14421 -1.8532
lowerneck -9.1526 -0.192108 0.270073
upperneck 24.8587 -2.24423 7.83788
head 9.42094 -0.160388 2.42862
rclavicle 1.32689e-014 -2.08724e-014
rhumerus -53.0155 -3.50826 -85.2342
rradius 83.3875
rwrist 39.6129
rhand 13.3209 -25.7765
rfingers 7.12502
rthumb 38.2688 -51.502
lclavicle 1.32689e-014 -2.08724e-014
lhumerus 13.393 -33.3837 82.058
lradius 148.568
lwrist 20.8667
lhand -25.673 -8.76753
lfingers 7.12502
lthumb 0.861588 21.2105
rfemur -1.30753 23.5191 25.6162
rtibia 2.62483
rfoot -14.5893 -28.3785
rtoes 5.80965
lfemur 6.68647 -46.4644 -14.2893
ltibia -5.05561
lfoot -19.3561 51.2114
ltoes 7.5437
892
root 0.748719 17.452 9.47412 8.28747 3.40188 -8.15866
lowerback -4.07994 2.20455 6.56816
upperback -10.5368 3.19438 1.77238
thorax -8.62939 1.15265 -1.8798
lowerneck -9.20624 -0.224488 0.212447
upperneck 24.8513 -2.28947 7.87653
head 9.43143 -0.181707 2.44729
rclavicle 1.42131e-014 4.23411e-014
rhumerus -52.9752 -3.46254 -85.2472
rradius 83.3467
rwrist 39.6029
rhand 13.3326 -25.6997
rfingers 7.12502
rthumb 38.2799 -51.4222
lclavicle 1.42131e-014 4.23411e-014
lhumerus 13.4209 -33.4587 82.0271
lradius 148.538
lwrist 20.8374
lhand -25.6846 -8.75675
lfingers 7.12502
lthumb 0.850335 21.2213
rfemur -1.30663 23.5104 25.6677
rtibia 2.63365
rfoot -14.6819 -28.3947
rtoes 6.07555
lfemur 6.55646 -46.2774 -14.1443
ltibia -5.01656
lfoot -18.9886 51.0243
ltoes 7.07278
893
root 0.74541 17.4518 9.47482 8.26251 3.44304 -8.19016
lowerback -4.15049 2.20895 6.55376
upperback -10.5196 3.19368 1.78667
thorax -8.57015 1.15659 -1.85361
lowerneck -9.21998 -0.244136 0.229727
upperneck 24.8157 -2.30111 7.80726
head 9.42095 -0.193692 2.41806
rclavicle -5.81445e-015 3.47873e-014
rhumerus -52.8951 -3.38293 -85.2719
rradius 83.3402
rwrist 39.6053
rhand 13.3477 -25.6037
rfingers 7.12502
rthumb 38.2941 -51.3223
lclavicle -5.81445e-015 3.47873e-014
lhumerus 13.4371 -33.4658 82.0209
lradius 148.52
lwrist 20.8255
lhand -25.541 -8.72244
lfingers 7.12502
lthumb 0.989065 21.255
rfemur -1.27271 23.5159 25.7321
rtibia 2.63761
rfoot -14.8107 -28.3971
rtoes 6.51476
lfemur 6.54651 -46.2266 -14.1021
ltibia -4.98141
lfoot -18.8795 50.9641
ltoes 6.82033
894
root 0.74092 17.451 9.47604 8.21941 3.47737 -8.19226
lowerback -4.19992 2.20087 6.48075
upperback -10.4947 3.17682 1.7976
thorax -8.51751 1.15687 -1.79907
lowerneck -9.18451 -0.260689 0.320866
upperneck 24.7573 -2.31629 7.72457
head 9.39281 -0.203556 2.37039
rclavicle 2.9768e-014 4.57205e-014
rhumerus -52.7845 -3.32799 -85.3042
rradius 83.3291
rwrist 39.5481
rhand 13.3215 -25.5742
rfingers 7.12502
rthumb 38.2694 -51.2996
lclavicle 2.9768e-014 4.57205e-014
lhumerus 13.4595 -33.4415 82.031
lradius 148.495
lwrist 20.8171
lhand -25.4041 -8.70561
lfingers 7.12502
lthumb 1.12127 21.2712
rfemur -1.20704 23.5207 25.7774
rtibia 2.63333
rfoot -14.8924 -28.4244
rtoes 6.68408
lfemur 6.67358 -46.3945 -14.1847
ltibia -5.00614
lfoot -18.8934 51.1132
ltoes 6.78421
895
root 0.736098 17.4502 9.47596 8.17153 3.54002 -8.18659
lowerback -4.19167 2.19055 6.42071
upperback -10.4922 3.16252 1.7872
thorax -8.52169 1.15411 -1.77698
lowerneck -9.17877 -0.298849 0.26547
upperneck 24.7335 -2.38207 7.82147
head 9.38798 -0.229867 2.40616
rclavicle -3.32964e-015 1.23246e-014
rhumerus -52.7222 -3.34007 -85.3173
rradius 83.3504
rwrist 39.4703
rhand 13.2846 -25.6418
rfingers 7.12502
rthumb 38.2346 -51.3768
lclavicle -3.32964e-015 1.23246e-014
lhumerus 13.4925 -33.4502 82.034
lradius 148.446
lwrist 20.8684
lhand -25.3583 -8.69493
lfingers 7.12502
lthumb 1.16554 21.2816
rfemur -1.15057 23.5172 25.8149
rtibia 2.64766
rfoot -14.915 -28.4811
rtoes 6.60384
lfemur 6.77152 -46.5939 -14.2545
ltibia -5.01056
lfoot -18.8888 51.2617
ltoes 6.82122
896
root 0.733123 17.4499 9.47382 8.17578 3.60679 -8.2072
lowerback -4.21852 2.19767 6.41767
upperback -10.5056 3.16992 1.77358
thorax -8.51987 1.15745 -1.78901
lowerneck -9.27423 -0.374041 0.0852407
upperneck 24.8036 -2.50465 7.99121
head 9.44013 -0.281747 2.48533
rclavicle 2.49475e-014 -5.32743e-014
rhumerus -52.6773 -3.41109 -85.2886
rradius 83.3821
rwrist 39.4926
rhand 13.2276 -25.6952
rfingers 7.12502
rthumb 38.1808 -51.445
lclavicle 2.49475e-014 -5.32743e-014
lhumerus 13.544 -33.4985 82.0507
lradius 148.383
lwrist 20.9515
lhand -25.4759 -8.70275
lfingers 7.12502
lthumb 1.0519 21.2744
rfemur -1.18325 23.5131 25.8473
rtibia 2.69139
rfoot -14.9369 -28.5198
rtoes 6.67376
lfemur 6.68756 -46.6317 -14.1687
ltibia -4.95744
lfoot -18.9027 51.2338
ltoes 6.86118
